<?xml version="1.0" encoding="UTF-8" standalone="no"?>
<!DOCTYPE svg PUBLIC "-//W3C//DTD SVG 1.1//EN" "http://www.w3.org/Graphics/SVG/1.1/DTD/svg11.dtd">
<svg width="100%" height="100%" viewBox="0 0 16 16" version="1.1" xmlns="http://www.w3.org/2000/svg" xmlns:xlink="http://www.w3.org/1999/xlink" xml:space="preserve" xmlns:serif="http://www.serif.com/" style="fill-rule:evenodd;clip-rule:evenodd;stroke-linecap:round;stroke-linejoin:round;stroke-miterlimit:1.5;">
    <g transform="matrix(1,0,0,1,4.97158,12.7422)">
        <path d="M0.448,-9.074C0.764,-9.044 1.059,-9.003 1.282,-8.952C1.628,-8.871 1.75,-8.678 1.76,-8.23C1.781,-7.67 1.781,-6.388 1.781,-4.831C1.781,-3.907 1.76,-1.8 1.75,-1.373C1.72,-0.844 1.608,-0.64 1.252,-0.559C1.048,-0.518 0.794,-0.477 0.499,-0.437C0.418,-0.376 0.438,-0.011 0.499,0.05C0.804,0.05 1.486,0.001 2.635,0.001C3.763,0.001 4.516,0.05 4.842,0.05C4.923,-0.001 4.934,-0.406 4.873,-0.437C4.486,-0.498 4.282,-0.528 4.007,-0.589C3.672,-0.671 3.56,-0.844 3.55,-1.322C3.519,-1.922 3.519,-3.154 3.519,-4.059C3.519,-4.08 3.55,-4.141 3.58,-4.141C3.712,-4.141 4.17,-4.161 4.343,-4.141C4.516,-4.131 4.649,-4.039 4.771,-3.886C5.31,-3.042 6.175,-1.597 6.765,-0.874C6.948,-0.62 7.233,-0.376 7.527,-0.224C8.137,0.06 9.541,0.111 10.345,0.06C10.416,0.03 10.477,-0.386 10.436,-0.437C9.561,-0.549 9.409,-0.61 8.809,-1.2C8.046,-1.963 6.724,-3.856 6.297,-4.608C6.277,-4.618 6.297,-4.699 6.308,-4.709C7.294,-5.137 8.127,-5.889 8.127,-7.151C8.127,-8.515 7.111,-9.561 5.229,-9.561C4.486,-9.561 3.651,-9.512 2.482,-9.512C1.954,-9.512 0.875,-9.561 0.499,-9.561C0.418,-9.531 0.408,-9.165 0.448,-9.074ZM4.14,-8.952C5.595,-8.952 6.328,-8.077 6.328,-6.693C6.328,-5.686 5.921,-5.198 5.453,-4.984C5.168,-4.841 4.465,-4.801 3.59,-4.831C3.55,-4.831 3.519,-4.872 3.519,-4.933C3.519,-6.531 3.519,-8.22 3.55,-8.657C3.55,-8.739 3.611,-8.861 3.651,-8.891C3.794,-8.932 4.007,-8.952 4.14,-8.952Z" style="fill:rgb(186,186,186);fill-rule:nonzero;"/>
    </g>
    <g transform="matrix(1,0,0,1,-0.675535,0.0102005)">
        <path d="M4.197,6.056L5.953,7.505L6.562,8L5.953,8.495L4.197,9.937" style="fill:none;stroke:rgb(190,190,190);stroke-width:1px;"/>
    </g>
    <g transform="matrix(1,0,0,1,-0.675535,0.0102005)">
        <path d="M6.562,8L1.663,8" style="fill:none;stroke:rgb(190,190,190);stroke-width:1px;"/>
    </g>
</svg>
