<?xml version="1.0" encoding="UTF-8" standalone="no"?>
<!DOCTYPE svg PUBLIC "-//W3C//DTD SVG 1.1//EN" "http://www.w3.org/Graphics/SVG/1.1/DTD/svg11.dtd">
<svg width="100%" height="100%" viewBox="0 0 16 16" version="1.1" xmlns="http://www.w3.org/2000/svg" xmlns:xlink="http://www.w3.org/1999/xlink" xml:space="preserve" xmlns:serif="http://www.serif.com/" style="fill-rule:evenodd;clip-rule:evenodd;stroke-linecap:round;stroke-linejoin:round;stroke-miterlimit:1.5;">
    <g transform="matrix(1,0,0,1,1.77223,8.97555)">
        <path d="M4.606,-5.305C4.942,-5.254 5.196,-5.223 5.42,-5.162C5.766,-5.05 5.837,-4.928 5.878,-4.429C5.908,-4.002 5.907,-2.71 5.907,-1.407C5.907,0.392 5.908,1.807 5.878,2.377C5.858,2.896 5.715,3.089 5.39,3.17C5.135,3.242 4.728,3.292 4.21,3.353C4.169,3.414 4.179,3.749 4.21,3.841C4.973,3.841 5.908,3.79 6.864,3.79C8.501,3.79 9.794,3.851 11.107,3.851C11.838,3.851 11.919,3.759 11.99,3.597C12.245,3.109 12.601,1.827 12.682,1.39C12.621,1.308 12.265,1.186 12.173,1.196C11.96,1.715 11.634,2.285 11.37,2.621C11.056,2.997 10.862,3.089 10.17,3.109C9.397,3.109 8.339,3.079 8.023,2.997C7.84,2.947 7.687,2.733 7.687,2.448C7.667,1.685 7.657,0.301 7.667,-0.503C7.667,-0.534 7.718,-0.646 7.759,-0.646C8.298,-0.646 9.529,-0.646 9.916,-0.615C10.252,-0.564 10.374,-0.381 10.455,-0.157C10.496,0.036 10.496,0.077 10.588,0.484C10.669,0.545 11.076,0.525 11.157,0.464C11.137,0.057 11.127,-0.523 11.127,-1.021C11.127,-1.55 11.188,-2.17 11.218,-2.516C11.157,-2.588 10.74,-2.598 10.649,-2.547C10.608,-2.333 10.557,-2.109 10.516,-1.957C10.415,-1.631 10.292,-1.468 9.946,-1.458C9.427,-1.407 8.278,-1.407 7.759,-1.428C7.718,-1.428 7.667,-1.489 7.667,-1.55C7.657,-2.415 7.657,-3.788 7.667,-4.725C7.667,-4.796 7.748,-4.989 7.86,-5.02C8.054,-5.04 9.784,-5.04 10.14,-5.01C10.516,-4.979 10.71,-4.857 10.842,-4.501C10.954,-4.257 11.015,-3.972 11.076,-3.453C11.137,-3.412 11.543,-3.422 11.624,-3.483C11.655,-4.245 11.746,-5.252 11.868,-5.72C11.868,-5.751 11.838,-5.802 11.807,-5.802C11.37,-5.741 10.547,-5.72 9.936,-5.72L6.833,-5.72C6.01,-5.72 5.125,-5.781 4.627,-5.781C4.555,-5.72 4.525,-5.376 4.606,-5.305Z" style="fill:rgb(186,186,186);fill-rule:nonzero;"/>
    </g>
    <g transform="matrix(1,0,0,1,-0.11755,0.00364095)">
        <path d="M4.197,6.056L5.953,7.505L6.562,8L5.953,8.495L4.197,9.937" style="fill:none;stroke:rgb(190,190,190);stroke-width:1px;"/>
    </g>
    <g transform="matrix(1,0,0,1,-0.11755,0.00364095)">
        <path d="M6.562,8L1.663,8" style="fill:none;stroke:rgb(190,190,190);stroke-width:1px;"/>
    </g>
</svg>
